<?xml version="1.0" standalone="no"?>
<!DOCTYPE svg PUBLIC "-//W3C//DTD SVG 20010904//EN"
 "http://www.w3.org/TR/2001/REC-SVG-20010904/DTD/svg10.dtd">
<svg version="1.0" xmlns="http://www.w3.org/2000/svg"
fill="#00000"
 width="920.000000pt" height="920.000000pt" viewBox="0 0 920.000000 920.000000"
 preserveAspectRatio="xMidYMid meet">

<g transform="translate(0.000000,920.000000) scale(0.100000,-0.100000)"
 stroke="none">
<path d="M6592 9144 c-76 -28 -145 -110 -313 -374 -86 -135 -280 -436 -431
-670 -150 -234 -368 -571 -482 -750 -115 -179 -214 -331 -221 -338 -12 -14
-263 -75 -620 -152 -360 -77 -504 -100 -690 -110 -241 -12 -323 -34 -545 -145
-99 -49 -633 -338 -680 -367 -12 -8 -63 38 -266 244 -414 419 -576 590 -707
745 -145 172 -280 230 -397 171 -64 -33 -85 -67 -84 -136 3 -141 138 -373 569
-977 493 -691 665 -885 787 -885 42 0 247 87 790 336 233 107 247 111 248 66
0 -7 31 -155 70 -330 38 -174 90 -411 115 -527 25 -115 62 -285 82 -377 l37
-168 106 0 c301 0 699 66 999 166 179 60 453 192 534 257 33 26 22 -35 112
642 13 105 50 379 80 609 l56 419 53 101 c29 56 110 211 179 346 68 135 227
445 352 690 359 701 549 1088 578 1177 30 92 35 178 13 221 -53 102 -210 157
-324 116z"/>
<path d="M8017 9023 c-2 -5 -4 -64 -6 -133 -14 -778 -233 -1540 -615 -2140
-265 -417 -633 -802 -971 -1015 -33 -21 -61 -39 -63 -40 -3 -3 155 -283 169
-299 20 -23 338 226 548 429 538 522 938 1216 1132 1965 91 349 149 785 149
1112 l0 128 -169 0 c-94 0 -172 -3 -174 -7z"/>
<path d="M4095 8434 c-231 -36 -432 -203 -512 -425 -23 -64 -26 -90 -27 -199
-1 -98 3 -137 18 -180 60 -176 179 -317 327 -388 95 -45 153 -60 254 -66 291
-16 567 191 640 479 18 69 20 211 4 287 -6 29 -30 94 -55 145 -98 204 -304
339 -533 348 -47 2 -99 1 -116 -1z"/>
<path d="M6414 4966 c-107 -25 -159 -59 -309 -205 -266 -260 -390 -345 -685
-471 -464 -199 -1046 -335 -1519 -356 l-147 -7 -30 -76 c-17 -42 -113 -276
-214 -521 -658 -1605 -944 -2343 -1014 -2615 -41 -161 -39 -310 4 -395 57
-113 215 -164 328 -106 111 57 211 194 359 496 53 107 135 269 184 360 90 168
510 1024 769 1565 79 165 146 303 149 306 3 4 60 9 126 12 236 12 492 59 728
133 43 13 80 24 83 24 2 0 4 -639 4 -1421 0 -1580 -5 -1461 67 -1516 41 -31
126 -43 173 -23 41 17 87 71 99 117 7 26 11 512 11 1503 l1 1465 67 30 c46 21
156 99 356 253 158 123 289 222 290 220 2 -2 23 -84 49 -183 284 -1111 319
-1228 419 -1402 56 -99 139 -184 200 -208 98 -37 190 8 239 118 23 49 24 63
24 242 0 142 -5 210 -18 270 -16 77 -43 246 -212 1325 -120 774 -111 725 -154
815 -47 100 -132 194 -204 229 -66 31 -145 39 -223 22z"/>
</g>
</svg>
