<?xml version="1.0" encoding="utf-8"?>
<!-- Svg Vector Icons : http://www.onlinewebfonts.com/icon -->
<!DOCTYPE svg PUBLIC "-//W3C//DTD SVG 1.1//EN" "http://www.w3.org/Graphics/SVG/1.1/DTD/svg11.dtd">
<svg version="1.1" xmlns="http://www.w3.org/2000/svg" xmlns:xlink="http://www.w3.org/1999/xlink" x="0px" y="0px" viewBox="0 0 1000 1000" enable-background="new 0 0 1000 1000" xml:space="preserve">
<metadata> Svg Vector Icons : http://www.onlinewebfonts.com/icon </metadata>
<g><g transform="translate(0.000000,512.000000) scale(0.100000,-0.100000)"><path d="M4875.4,4999.2c-70.9-32.6-134.2-99.7-161-170.6c-13.4-32.6-21.1-243.5-21.1-542.5v-486.9h-642.2c-529.1,0-642.2,3.8-642.2,26.8c0,65.2-141.9,301-247.3,408.4c-421.8,431.3-1100.4,439-1524.1,13.4c-419.8-419.8-419.8-1088.9,0-1510.7c421.8-419.8,1098.5-419.8,1514.5,1.9c105.4,107.4,224.3,295.2,247.3,394.9l13.4,51.8H4053h640.3V1805.3V425H4053h-640.3l-13.4,53.7c-23,97.8-141.9,285.7-247.3,393c-513.8,521.5-1399.5,375.8-1719.7-285.6c-348.9-718.9,174.5-1541.3,979.6-1541.3c366.2,0,763,247.3,929.8,580.9c36.4,72.8,67.1,145.7,67.1,159.1c0,23,113.1,26.8,642.2,26.8h642.2v-1380.3v-1380.3h-642.2c-529.1,0-642.2,3.8-642.2,26.9c0,13.4-30.7,88.2-69,162.9c-145.7,293.3-456.3,513.8-787.9,561.7C1693-2075,1052.7-2954.9,1434.2-3729.4c324-657.6,1194.4-801.3,1712-281.8c118.9,118.9,262.7,348.9,262.7,421.8c0,23,111.2,26.8,642.2,26.8h640.3l5.8-515.7c5.7-486.9,7.7-519.5,46-569.4c74.8-101.6,136.1-132.3,256.9-132.3c120.8,0,182.1,30.7,256.9,132.3c40.3,51.7,40.3,72.8,46,1412.9l3.8,1359.2H5949c529.1,0,642.2-3.8,642.2-26.8c0-70.9,145.7-308.7,260.7-423.7c517.6-517.6,1395.7-370,1713.9,285.6c444.8,920.2-510,1875-1430.2,1430.2c-205.1-99.7-377.7-266.5-475.5-462c-38.3-74.8-69-149.5-69-163c0-23-113.1-26.8-642.2-26.8h-642.2V118.2v1380.3H5949c529.1,0,642.2-3.8,642.2-26.8c0-70.9,145.7-308.7,260.7-423.7c517.6-517.6,1395.7-370,1713.9,285.6c444.8,920.2-510,1875-1430.2,1430.2c-205.1-99.7-377.7-266.5-475.5-462c-38.3-74.8-69-149.5-69-162.9c0-23-113.1-26.8-642.2-26.8h-642.2l-3.8,1359.2c-5.8,1340.1-5.8,1361.1-46,1412.9c-21.1,28.8-61.3,70.9-88.2,90.1C5103.6,5022.2,4952.1,5035.6,4875.4,4999.2z M2534.6,3929.5c164.9-49.8,318.2-260.7,318.2-437.1c0-176.4-153.4-387.3-318.2-437.1c-180.2-53.7-324-15.3-458.2,120.8c-195.5,193.6-195.5,439,0,632.6C2210.7,3944.8,2354.4,3981.2,2534.6,3929.5z M7749.2,2242.4c164.9-49.8,318.2-260.7,318.2-437.1c0-237.7-222.4-460.1-460.1-460.1c-120.8,0-218.6,44.1-316.3,143.8c-195.6,193.6-195.6,439,0,632.6C7425.2,2257.7,7569,2294.2,7749.2,2242.4z M2534.6,555.3c105.4-30.7,264.6-189.8,295.2-295.2c53.7-180.2,15.3-324-120.8-458.2c-193.6-195.6-439-195.6-632.6,0c-195.5,193.6-195.5,439,0,632.6C2210.7,570.7,2354.4,607.1,2534.6,555.3z M7749.2-1131.7c164.9-49.8,318.2-260.7,318.2-437.1c0-237.7-222.4-460.1-460.1-460.1c-237.7,0-460.1,222.4-460.1,460.1c0,120.8,44.1,218.5,143.8,316.3C7425.2-1116.4,7569-1080,7749.2-1131.7z M2534.6-2818.8c164.9-49.8,318.2-260.7,318.2-437.1c0-237.7-222.4-460.1-460.1-460.1c-120.8,0-218.5,44.1-316.3,143.8c-195.5,193.6-195.5,439,0,632.6C2210.7-2803.5,2354.4-2767,2534.6-2818.8z"/></g></g>
</svg>